<?xml version="1.0" encoding="UTF-8" standalone="no"?>
<svg xmlns:svg="http://www.w3.org/2000/svg" xmlns="http://www.w3.org/2000/svg" xmlns:xlink="http://www.w3.org/1999/xlink" version="1.0" width="64px" height="64px" viewBox="0 0 128 128" xml:space="preserve">
  <rect x="0" y="0" width="100%" height="100%" fill="#FFFFFF" />
  <g>
    <path fill="#9dedf0" d="M64 128a64 64 0 1 1 64-64 64 64 0 0 1-64 64zM64 2.75A61.2 61.2 0 0 0 3.34 72.4c1.28-3.52 3.9-6.32 7.5-6.86 6.55-1 11.9 2.63 13.6 8.08 3.52 11.27.5 23 15 35.25 19.47 16.46 40.34 13.54 52.84 9.46A61.25 61.25 0 0 0 64 2.75z"/>
    <animateTransform attributeName="transform" type="rotate" from="0 64 64" to="360 64 64" dur="1600ms" repeatCount="indefinite"></animateTransform>
  </g>
  <defs>
    <linearGradient id="gradient" gradientTransform="rotate(45)">
      <stop offset="-43.27%" stop-color="#def9fa" />
      <stop offset="-21.24%" stop-color="#bef3f5" />
      <stop offset="12.19%" stop-color="#9dedf0" />
      <stop offset="29.82%" stop-color="#7de7eb" />
      <stop offset="51.94%" stop-color="#5ce1e6" />
      <stop offset="90.29%" stop-color="#33bbcf" />
    </linearGradient>
  </defs>
</svg>

